# xmcd
#
# Track frame offsets: 
#        150
#        24306
#        50079
#        60567
#
# Disc length: 1100 seconds
#
# Revision: 0
# Processed by: cddbd v1.5.2PL0 Copyright (c) Steve Scherf et al.
# Submitted via: ExactAudioCopy v1.0b1
#
DISCID=2d044a04
DTITLE=雨先案内人 - やさしいお薬
DYEAR=2012
DGENRE=J-Pop
TTITLE0=おひさま [ぽかぽか編]
TTITLE1=かわ [Acoustic]
TTITLE2=がちゃがちゃ [Acoustic]
TTITLE3=友達をつくろう [Acoustic]
EXTD=
EXTT0=
EXTT1=
EXTT2=
EXTT3=
PLAYORDER=
